<svg width="42" height="42" viewBox="0 0 42 42" fill="none" xmlns="http://www.w3.org/2000/svg">
<path d="M25.6024 4.59492C25.6024 2.07222 23.5452 0 21.0075 0C18.4698 0 16.3976 2.07222 16.4126 4.59492V16.4126H4.59492C2.07222 16.4126 0 18.4698 0 21.0075C0 23.5302 2.07222 25.6024 4.59492 25.6024H16.4126V37.4051C16.4126 39.9278 18.4698 42 21.0075 42C23.5302 42 25.6024 39.9428 25.6024 37.4051V25.6024H37.4051C39.9278 25.6024 42 23.5452 42 21.0075C42 18.4848 39.9428 16.4126 37.4051 16.4126H25.6024V4.59492Z" fill="url(#paint0_linear_1_157)"/>
<path d="M25.6024 4.59492C25.6024 2.07222 23.5452 0 21.0075 0C18.4698 0 16.3976 2.07222 16.4126 4.59492V16.4126H4.59492C2.07222 16.4126 0 18.4698 0 21.0075C0 23.5302 2.07222 25.6024 4.59492 25.6024H16.4126V37.4051C16.4126 39.9278 18.4698 42 21.0075 42C23.5302 42 25.6024 39.9428 25.6024 37.4051V25.6024H37.4051C39.9278 25.6024 42 23.5452 42 21.0075C42 18.4848 39.9428 16.4126 37.4051 16.4126H25.6024V4.59492Z" fill="url(#paint1_linear_1_157)"/>
<path d="M25.6024 4.59492C25.6024 2.07222 23.5452 0 21.0075 0C18.4698 0 16.3976 2.07222 16.4126 4.59492V16.4126H4.59492C2.07222 16.4126 0 18.4698 0 21.0075C0 23.5302 2.07222 25.6024 4.59492 25.6024H16.4126V37.4051C16.4126 39.9278 18.4698 42 21.0075 42C23.5302 42 25.6024 39.9428 25.6024 37.4051V25.6024H37.4051C39.9278 25.6024 42 23.5452 42 21.0075C42 18.4848 39.9428 16.4126 37.4051 16.4126H25.6024V4.59492Z" fill="url(#paint2_linear_1_157)"/>
<path d="M25.6024 4.59492C25.6024 2.07222 23.5452 0 21.0075 0C18.4698 0 16.3976 2.07222 16.4126 4.59492V16.4126H4.59492C2.07222 16.4126 0 18.4698 0 21.0075C0 23.5302 2.07222 25.6024 4.59492 25.6024H16.4126V37.4051C16.4126 39.9278 18.4698 42 21.0075 42C23.5302 42 25.6024 39.9428 25.6024 37.4051V25.6024H37.4051C39.9278 25.6024 42 23.5452 42 21.0075C42 18.4848 39.9428 16.4126 37.4051 16.4126H25.6024V4.59492Z" fill="url(#paint3_radial_1_157)"/>
<path d="M25.6024 4.59492C25.6024 2.07222 23.5452 0 21.0075 0C18.4698 0 16.3976 2.07222 16.4126 4.59492V16.4126H4.59492C2.07222 16.4126 0 18.4698 0 21.0075C0 23.5302 2.07222 25.6024 4.59492 25.6024H16.4126V37.4051C16.4126 39.9278 18.4698 42 21.0075 42C23.5302 42 25.6024 39.9428 25.6024 37.4051V25.6024H37.4051C39.9278 25.6024 42 23.5452 42 21.0075C42 18.4848 39.9428 16.4126 37.4051 16.4126H25.6024V4.59492Z" fill="url(#paint4_radial_1_157)"/>
<path d="M25.6024 4.59492C25.6024 2.07222 23.5452 0 21.0075 0C18.4698 0 16.3976 2.07222 16.4126 4.59492V16.4126H4.59492C2.07222 16.4126 0 18.4698 0 21.0075C0 23.5302 2.07222 25.6024 4.59492 25.6024H16.4126V37.4051C16.4126 39.9278 18.4698 42 21.0075 42C23.5302 42 25.6024 39.9428 25.6024 37.4051V25.6024H37.4051C39.9278 25.6024 42 23.5452 42 21.0075C42 18.4848 39.9428 16.4126 37.4051 16.4126H25.6024V4.59492Z" fill="url(#paint5_radial_1_157)"/>
<path d="M25.6024 4.59492C25.6024 2.07222 23.5452 0 21.0075 0C18.4698 0 16.3976 2.07222 16.4126 4.59492V16.4126H4.59492C2.07222 16.4126 0 18.4698 0 21.0075C0 23.5302 2.07222 25.6024 4.59492 25.6024H16.4126V37.4051C16.4126 39.9278 18.4698 42 21.0075 42C23.5302 42 25.6024 39.9428 25.6024 37.4051V25.6024H37.4051C39.9278 25.6024 42 23.5452 42 21.0075C42 18.4848 39.9428 16.4126 37.4051 16.4126H25.6024V4.59492Z" fill="url(#paint6_radial_1_157)"/>
<defs>
<linearGradient id="paint0_linear_1_157" x1="21" y1="0" x2="21" y2="38.701" gradientUnits="userSpaceOnUse">
<stop stop-color="#7366AD"/>
<stop offset="1" stop-color="#7D5DD4"/>
</linearGradient>
<linearGradient id="paint1_linear_1_157" x1="21" y1="16.1153" x2="21" y2="26.2782" gradientUnits="userSpaceOnUse">
<stop stop-color="#655898"/>
<stop offset="0.214" stop-color="#8276BD"/>
<stop offset="0.335" stop-color="#897EC1"/>
<stop offset="0.523" stop-color="#7966C1"/>
<stop offset="0.863" stop-color="#8842EC"/>
<stop offset="1" stop-color="#6035BE"/>
</linearGradient>
<linearGradient id="paint2_linear_1_157" x1="16.5177" y1="10.5113" x2="28.1792" y2="10.5113" gradientUnits="userSpaceOnUse">
<stop stop-color="#564199" stop-opacity="0"/>
<stop offset="0.352" stop-color="#7362AF"/>
<stop offset="0.563" stop-color="#8878CA"/>
<stop offset="0.643" stop-color="#8878CA"/>
<stop offset="0.849" stop-color="#9489CB" stop-opacity="0"/>
</linearGradient>
<radialGradient id="paint3_radial_1_157" cx="0" cy="0" r="1" gradientUnits="userSpaceOnUse" gradientTransform="translate(21.488 40.2281) rotate(90) scale(4.28103 8.02185)">
<stop offset="0.096" stop-color="#9447FE"/>
<stop offset="0.846" stop-color="#7D6CBB" stop-opacity="0"/>
</radialGradient>
<radialGradient id="paint4_radial_1_157" cx="0" cy="0" r="1" gradientUnits="userSpaceOnUse" gradientTransform="translate(0.390418 19.7552) rotate(180) scale(4.89886 6.92231)">
<stop offset="0.11" stop-color="#41366A"/>
<stop offset="1" stop-color="#7E5FCD" stop-opacity="0"/>
</radialGradient>
<radialGradient id="paint5_radial_1_157" cx="0" cy="0" r="1" gradientUnits="userSpaceOnUse" gradientTransform="translate(22.8154 2.72992) rotate(-57.8297) scale(2.9717 4.00489)">
<stop offset="0.177" stop-color="#A398D8"/>
<stop offset="1" stop-color="#8A7ACC" stop-opacity="0"/>
</radialGradient>
<radialGradient id="paint6_radial_1_157" cx="0" cy="0" r="1" gradientUnits="userSpaceOnUse" gradientTransform="translate(25.3381 17.4787) rotate(-53.1301) scale(3.66708 2.64152)">
<stop offset="0.177" stop-color="#A398D8"/>
<stop offset="1" stop-color="#8A7ACC" stop-opacity="0"/>
</radialGradient>
</defs>
</svg>
