<svg width="36" height="36" viewBox="0 0 36 36" fill="none" xmlns="http://www.w3.org/2000/svg">
<path d="M32.4804 0C33.419 0 34.2402 0.311384 34.9441 0.934152C35.648 1.55692 36 2.33705 36 3.27455C36 4.1183 35.6983 5.12946 35.095 6.30804C30.6436 14.7321 27.5263 19.7679 25.743 21.4152C24.4425 22.6339 22.981 23.2433 21.3587 23.2433C19.6693 23.2433 18.2179 22.6239 17.0045 21.385C15.7911 20.1462 15.1844 18.6763 15.1844 16.9754C15.1844 15.2612 15.8011 13.8415 17.0346 12.7165L29.8659 1.08482C30.657 0.361607 31.5285 0 32.4804 0ZM14.1989 20.7723C14.7218 21.7902 15.4358 22.6607 16.3408 23.3839C17.2458 24.1071 18.2547 24.6161 19.3676 24.9107L19.3877 26.3371C19.4413 29.1897 18.5732 31.5134 16.7832 33.308C14.9933 35.1027 12.657 36 9.7743 36C8.12514 36 6.66369 35.6886 5.38994 35.0658C4.1162 34.4431 3.09385 33.5893 2.32291 32.5045C1.55196 31.4196 0.972067 30.1942 0.58324 28.8281C0.194413 27.4621 0 25.9888 0 24.4085C0.0938547 24.4754 0.368715 24.6763 0.824581 25.0112C1.28045 25.346 1.69609 25.644 2.07151 25.9051C2.44693 26.1663 2.84246 26.4107 3.2581 26.6384C3.67374 26.8661 3.98212 26.9799 4.18324 26.9799C4.73296 26.9799 5.10168 26.7321 5.28939 26.2366C5.62458 25.3527 6.01006 24.5993 6.44581 23.9766C6.88156 23.3538 7.34749 22.8449 7.84358 22.4498C8.33966 22.0547 8.92961 21.7366 9.61341 21.4955C10.2972 21.2545 10.9877 21.0837 11.6849 20.9833C12.3821 20.8828 13.2201 20.8125 14.1989 20.7723Z" fill="#8B79CC"/>
</svg>
