<svg width="36" height="36" viewBox="0 0 36 36" fill="none" xmlns="http://www.w3.org/2000/svg">
<path fill-rule="evenodd" clip-rule="evenodd" d="M11.0441 1.4837C13.3513 0.502775 15.8394 -0.00224445 18.3538 7.49824e-06C20.8683 0.00225945 23.3554 0.511735 25.6608 1.49679C27.9662 2.48185 30.0405 3.92146 31.7551 5.72622C33.4696 7.53098 34.7877 9.66235 35.6276 11.988C36.3351 13.9371 36.0207 16.1691 34.8021 17.856C34.191 18.6925 33.3864 19.3748 32.4543 19.8468C31.5222 20.3189 30.4893 20.5672 29.4404 20.5714H24.54C23.5996 20.5681 22.6891 20.8958 21.9739 21.4949C21.2586 22.094 20.786 22.9249 20.6417 23.8368C20.4975 24.7487 20.6912 25.6811 21.1876 26.4648C21.6841 27.2485 22.4505 27.8316 23.3476 28.1082C24.7889 28.6354 25.7979 29.9134 25.8948 31.4151C25.9894 32.2688 25.7765 33.128 25.293 33.8438C24.8096 34.5596 24.0861 35.0868 23.2481 35.3339C21.6473 35.7803 19.9908 36.0045 18.3266 35.9999C14.9654 35.9979 11.6693 35.0897 8.79829 33.3745C5.93843 31.646 3.61206 29.1862 2.06872 26.2588C0.525373 23.3315 -0.176714 20.0471 0.037762 16.758C0.286718 13.4715 1.44266 10.3135 3.38163 7.62268C5.3206 4.93184 7.96944 2.80965 11.0441 1.4837ZM11.4372 18C11.9534 18 12.4645 17.9002 12.9415 17.7064C13.4184 17.5125 13.8517 17.2284 14.2167 16.8702C14.5817 16.5121 14.8713 16.0869 15.0688 15.6189C15.2664 15.1509 15.368 14.6494 15.368 14.1428C15.368 13.6363 15.2664 13.1347 15.0688 12.6668C14.8713 12.1988 14.5817 11.7736 14.2167 11.4154C13.8517 11.0572 13.4184 10.7731 12.9415 10.5793C12.4645 10.3855 11.9534 10.2857 11.4372 10.2857C10.3947 10.2857 9.39485 10.6921 8.65767 11.4154C7.9205 12.1388 7.50636 13.1198 7.50636 14.1428C7.50636 15.1658 7.9205 16.1469 8.65767 16.8702C9.39485 17.5936 10.3947 18 11.4372 18ZM27.1605 10.2857C27.1605 11.3087 26.7464 12.2897 26.0092 13.0131C25.2721 13.7364 24.2722 14.1428 23.2297 14.1428C22.1872 14.1428 21.1874 13.7364 20.4502 13.0131C19.713 12.2897 19.2989 11.3087 19.2989 10.2857C19.2989 9.26271 19.713 8.28164 20.4502 7.55828C21.1874 6.83493 22.1872 6.42855 23.2297 6.42855C24.2722 6.42855 25.2721 6.83493 26.0092 7.55828C26.7464 8.28164 27.1605 9.26271 27.1605 10.2857ZM11.4372 26.9999C12.1322 26.9999 12.7988 26.729 13.2902 26.2468C13.7817 25.7646 14.0578 25.1105 14.0578 24.4285C14.0578 23.7465 13.7817 23.0925 13.2902 22.6103C12.7988 22.128 12.1322 21.8571 11.4372 21.8571C10.7422 21.8571 10.0756 22.128 9.58418 22.6103C9.09273 23.0925 8.81663 23.7465 8.81663 24.4285C8.81663 25.1105 9.09273 25.7646 9.58418 26.2468C10.0756 26.729 10.7422 26.9999 11.4372 26.9999Z" fill="#8B79CC"/>
</svg>
