<svg width="39" height="34" viewBox="0 0 39 34" fill="none" xmlns="http://www.w3.org/2000/svg">
<path d="M19.6691 31.5714L35.3296 14.0857C36.7977 12.3857 36.7977 9.71429 35.0849 8.01429L28.4781 1.45714C27.744 0.485714 26.5206 0 25.2971 0H20.8926C19.6691 0 18.4456 0.485714 17.4669 1.45714L1.07231 19.9143C-0.395863 21.6143 -0.395863 24.5286 1.317 25.9857L7.92376 32.5429C8.65785 33.5143 9.88132 34 11.1048 34H39V31.5714H19.6691ZM16.4881 31.3286L9.88132 24.7714C8.90254 23.8 8.90254 22.5857 9.88132 21.6143L18.2009 12.1429H15.754L8.41315 20.1571C6.94498 21.8571 6.94498 24.2857 8.65785 25.9857L14.2858 31.5714H11.1048C10.6154 31.5714 10.126 31.3286 9.63662 31.0857L2.78517 24.2857C2.05109 23.5571 2.05109 22.3429 2.78517 21.6143L11.3495 12.1429H15.754L24.3183 2.42857H26.7653L18.2009 12.1429L25.7865 21.1286L17.2222 30.8429C16.9775 31.0857 16.7328 31.0857 16.4881 31.3286Z" fill="#8B79CC"/>
</svg>
