<svg width="38" height="36" viewBox="0 0 38 36" fill="none" xmlns="http://www.w3.org/2000/svg">
<path d="M13.2607 20.839H24.6273V35.9944H13.2607V20.839Z" fill="url(#paint0_linear_1_120)"/>
<path d="M21.6909 4.79882C20.9222 4.15097 19.9493 3.79565 18.944 3.79565C17.9387 3.79565 16.9658 4.15097 16.1971 4.79882L3.4097 15.5876C2.93507 15.9876 2.55354 16.4864 2.29176 17.0492C2.02999 17.6121 1.89429 18.2253 1.89417 18.846V32.6847C1.89417 34.5148 3.37939 36 5.20941 36H14.2079V25.1014C14.2079 23.8132 15.2347 22.7674 16.5134 22.7333H21.3745C21.9917 22.7496 22.578 23.0063 23.0087 23.4486C23.4394 23.891 23.6803 24.484 23.68 25.1014V36H32.6786C33.5578 36 34.4011 35.6507 35.0228 35.029C35.6445 34.4072 35.9938 33.564 35.9938 32.6847V18.846C35.9937 18.2253 35.858 17.6121 35.5962 17.0492C35.3344 16.4864 34.9529 15.9876 34.4783 15.5876L21.6909 4.79882Z" fill="url(#paint1_linear_1_120)"/>
<path fill-rule="evenodd" clip-rule="evenodd" d="M20.4671 0.566715C20.0439 0.201147 19.5032 0 18.944 0C18.3847 0 17.8441 0.201147 17.4209 0.566715L0.770771 15.0212C0.54622 15.2139 0.362656 15.4498 0.230961 15.7148C0.0992669 15.9799 0.0221229 16.2686 0.00410253 16.564C-0.0139178 16.8594 0.027552 17.1554 0.126054 17.4345C0.224556 17.7136 0.378085 17.97 0.57754 18.1886C0.987026 18.6357 1.5546 18.9055 2.15979 18.9409C2.76498 18.9762 3.36013 18.7744 3.8189 18.3781L18.944 5.24973L34.0691 18.3781C35.0163 19.2022 36.4674 19.1169 37.3085 18.1886C37.5084 17.9701 37.6623 17.7136 37.7611 17.4344C37.86 17.1553 37.9017 16.8591 37.8839 16.5635C37.866 16.2678 37.7889 15.9788 37.6572 15.7136C37.5255 15.4483 37.3419 15.2122 37.1172 15.0193L20.4671 0.566715Z" fill="url(#paint2_linear_1_120)"/>
<path fill-rule="evenodd" clip-rule="evenodd" d="M17.4208 0.566715C17.8441 0.201147 18.3847 0 18.9439 0C19.5032 0 20.0438 0.201147 20.4671 0.566715L37.1171 15.0212C38.0644 15.8434 38.1515 17.2623 37.3104 18.1886C36.9009 18.6357 36.3333 18.9055 35.7281 18.9409C35.1229 18.9762 34.5278 18.7744 34.069 18.3781L18.9439 5.24973L3.81885 18.3762C3.36019 18.7719 2.76545 18.9734 2.16072 18.9381C1.55599 18.9027 0.988804 18.6332 0.579388 18.1868C0.379525 17.9682 0.225609 17.7117 0.126778 17.4325C0.0279476 17.1534 -0.013783 16.8572 0.00406368 16.5616C0.0219103 16.2659 0.0989706 15.9769 0.230669 15.7117C0.362368 15.4464 0.546021 15.2103 0.770725 15.0174L17.4208 0.566715Z" fill="url(#paint3_linear_1_120)"/>
<defs>
<linearGradient id="paint0_linear_1_120" x1="18.944" y1="20.839" x2="8.9168" y2="37.5573" gradientUnits="userSpaceOnUse">
<stop stop-color="#A398D8"/>
<stop offset="1" stop-color="#8842EC"/>
</linearGradient>
<linearGradient id="paint1_linear_1_120" x1="5.14879" y1="2.22051" x2="37.0698" y2="29.6916" gradientUnits="userSpaceOnUse">
<stop stop-color="#FFB357"/>
<stop offset="1" stop-color="#FFB357"/>
</linearGradient>
<linearGradient id="paint2_linear_1_120" x1="12.8212" y1="-4.49898" x2="21.1453" y2="18.0068" gradientUnits="userSpaceOnUse">
<stop stop-color="#8842EC"/>
<stop offset="1" stop-color="#A398D8"/>
</linearGradient>
<linearGradient id="paint3_linear_1_120" x1="12.8212" y1="-4.49898" x2="21.1453" y2="18.0068" gradientUnits="userSpaceOnUse">
<stop stop-color="#7D6CBB" stop-opacity="0"/>
<stop offset="1" stop-color="#8878CA"/>
</linearGradient>
</defs>
</svg>
