<svg width="44" height="44" viewBox="0 0 44 44" fill="none" xmlns="http://www.w3.org/2000/svg">
<path d="M0 0H20.7686H23.2289H23.8262H44V20.7787V22.8587V23.3915V44H23.606H21.9901H21.4241H20.5408H0V23.2221V20.7873V0ZM21.9993 5.29921C21.9973 5.52979 21.9525 6.33866 22.0174 6.50765L21.9966 6.5132C21.9922 7.33456 21.9869 8.15736 21.997 8.97866L22.18 8.99843L22.0048 9.00771C21.9591 9.14203 21.993 9.67802 21.993 9.86331L21.9926 13.1844C21.9925 13.4374 21.99 13.6908 21.9934 13.9438C21.9951 14.0746 22.019 14.2293 21.9957 14.3571C22.002 14.513 22.0062 14.6897 22.0503 14.8394C22.0376 14.9085 22.0225 14.9646 21.9931 15.0285C22.0118 15.4137 21.9985 15.8027 21.9977 16.1884L21.9965 23.1385C21.9966 24.0533 21.9854 24.9702 22.0013 25.8847C21.9555 25.8846 21.9097 25.8823 21.864 25.8777C21.8184 25.8731 21.7732 25.8663 21.7282 25.8574C21.6832 25.8484 21.6388 25.8373 21.5949 25.824C21.551 25.8108 21.5078 25.7954 21.4654 25.7779C21.423 25.7604 21.3815 25.7409 21.341 25.7195C21.3005 25.698 21.2612 25.6746 21.223 25.6493C21.1847 25.6239 21.1478 25.5968 21.1122 25.568C21.0766 25.539 21.0425 25.5085 21.0098 25.4763C20.7351 25.2017 20.6041 24.8511 20.5786 24.4686L19.5453 24.4719C19.6298 25.2345 19.8503 25.8807 20.4718 26.3739C20.9352 26.7416 21.425 26.8604 21.9996 26.9223C21.995 27.5222 21.9942 28.1221 21.997 28.7219C22.0023 28.8613 22.0046 28.999 22.0003 29.1384C21.9765 30.5785 21.9961 32.0214 21.9966 33.4618L21.9972 34.799C21.9974 35.0563 21.9782 35.331 22.0153 35.5853L21.9979 35.5975C21.9616 37.5781 21.9969 39.566 21.9968 41.5472V43.1383C21.9967 43.4232 22.0092 43.7159 21.9901 44H23.606H44V23.3915V22.8587C43.951 22.8821 43.9398 22.8988 43.8891 22.8675C43.6683 22.7304 42.9493 21.9471 42.7115 21.7092L31.8336 10.832C31.3705 10.3693 30.9152 9.88548 30.4364 9.44023C30.3806 9.38841 30.3281 9.36633 30.2554 9.34605C29.97 8.98746 29.6656 8.64579 29.3422 8.32104C29.282 8.26125 29.2211 8.2022 29.1594 8.14391C29.0977 8.08561 29.0354 8.02808 28.9723 7.9713C28.9092 7.91453 28.8454 7.85854 28.781 7.80333C28.7165 7.74812 28.6514 7.6937 28.5856 7.64008C28.5198 7.58646 28.4534 7.53366 28.3864 7.48167C28.3193 7.42968 28.2516 7.37851 28.1832 7.32817C28.1149 7.27783 28.046 7.22834 27.9764 7.17968C27.9069 7.13103 27.8368 7.08324 27.7661 7.0363C27.6954 6.98936 27.6241 6.94329 27.5522 6.8981C27.4805 6.8529 27.4081 6.80859 27.3352 6.76517C27.2622 6.72175 27.1888 6.67922 27.1148 6.63759C27.0409 6.59596 26.9664 6.55524 26.8915 6.51544C26.8165 6.47563 26.7411 6.43674 26.6652 6.39878C26.5893 6.36082 26.513 6.32379 26.4362 6.28769C26.3594 6.2516 26.2821 6.21644 26.2044 6.18224C26.1268 6.14803 26.0487 6.11478 25.9702 6.08248C25.8917 6.05018 25.8129 6.01885 25.7336 5.98849C25.6544 5.95812 25.5748 5.92872 25.4948 5.90031C25.4148 5.87188 25.3345 5.84444 25.2539 5.81799C25.1733 5.79153 25.0923 5.76606 25.0111 5.74158C24.9298 5.7171 24.8483 5.69363 24.7664 5.67114C24.6846 5.64866 24.6025 5.62718 24.5201 5.60671C24.4378 5.58623 24.3552 5.56677 24.2724 5.54831C24.1895 5.52986 24.1065 5.51242 24.0232 5.496C23.9399 5.47957 23.8565 5.46417 23.7729 5.44979C23.6892 5.4354 23.6054 5.42204 23.5214 5.40971C23.4375 5.39738 23.3534 5.38607 23.2691 5.37579C23.1849 5.36552 23.1005 5.35628 23.016 5.34806C22.9316 5.33985 22.8471 5.33267 22.7624 5.32653C22.6778 5.32038 22.5931 5.31527 22.5083 5.3112C22.4235 5.30713 22.3387 5.30409 22.2539 5.30209C22.169 5.3001 22.0842 5.29913 21.9993 5.29921ZM11.5787 32.4366C11.5862 33.0261 11.588 33.6157 11.5842 34.2053C11.5842 35.1141 11.5882 35.9653 11.9085 36.8332C12.0113 37.1115 12.1338 37.4087 12.2886 37.6625C12.3879 37.8251 12.5654 38.0084 12.6274 38.1832C12.2049 38.3089 11.7809 38.4292 11.3554 38.5442C11.1378 38.6044 10.9002 38.6897 10.6766 38.7187C10.6253 39.1378 10.578 39.5573 10.5347 39.9774C10.507 40.2343 10.4645 40.4989 10.4588 40.7569C13.1517 42.3342 15.6178 43.2846 18.7139 43.7673C19.3172 43.8614 19.9269 43.9058 20.5329 43.9773L20.5408 44H21.4241H21.9901C22.0092 43.7159 21.9967 43.4232 21.9968 43.1383V41.5472C21.9969 39.566 21.9616 37.5781 21.9979 35.5975L22.0153 35.5853C21.9782 35.331 21.9974 35.0563 21.9972 34.799L21.9966 33.4618C21.9961 32.0214 21.9765 30.5785 22.0003 29.1384C22.0046 28.999 22.0023 28.8613 21.997 28.7219C21.9942 28.1221 21.995 27.5222 21.9996 26.9223C21.425 26.8604 20.9352 26.7416 20.4718 26.3739C19.8503 25.8807 19.6298 25.2345 19.5453 24.4719L20.5786 24.4686C20.6041 24.8511 20.7351 25.2017 21.0098 25.4763C21.0425 25.5085 21.0766 25.539 21.1122 25.568C21.1478 25.5968 21.1847 25.6239 21.223 25.6493C21.2612 25.6746 21.3005 25.698 21.341 25.7195C21.3815 25.7409 21.423 25.7604 21.4654 25.7779C21.5078 25.7954 21.551 25.8108 21.5949 25.824C21.6388 25.8373 21.6832 25.8484 21.7282 25.8574C21.7732 25.8663 21.8184 25.8731 21.864 25.8777C21.9097 25.8823 21.9555 25.8846 22.0013 25.8847C21.9854 24.9702 21.9966 24.0533 21.9965 23.1385L21.9977 16.1884C21.9985 15.8027 22.0118 15.4137 21.9931 15.0285C22.0225 14.9646 22.0376 14.9085 22.0503 14.8394C22.0062 14.6897 22.002 14.513 21.9957 14.3571C22.019 14.2293 21.9951 14.0746 21.9934 13.9438C21.99 13.6908 21.9925 13.4374 21.9926 13.1844L21.993 9.86331C21.993 9.67802 21.9591 9.14203 22.0048 9.00771L22.18 8.99843L21.997 8.97866C21.9869 8.15736 21.9922 7.33456 21.9966 6.5132L22.0174 6.50765C21.9525 6.33866 21.9973 5.52979 21.9993 5.29921C21.3113 5.3374 20.6354 5.37861 19.9573 5.51084C19.8188 5.53862 19.681 5.56922 19.5438 5.60262C19.4066 5.63601 19.2701 5.67219 19.1344 5.71114C18.9986 5.75009 18.8637 5.79179 18.7297 5.83623C18.5957 5.88067 18.4626 5.92782 18.3305 5.97768C18.1984 6.02753 18.0673 6.08005 17.9374 6.13524C17.8074 6.19043 17.6786 6.24824 17.5509 6.30867C17.4233 6.3691 17.297 6.43211 17.1719 6.49768C17.0469 6.56326 16.9232 6.63135 16.8009 6.70196C16.6786 6.77256 16.5578 6.84563 16.4385 6.92115C16.3191 6.99667 16.2014 7.07459 16.0853 7.15491C15.9691 7.23522 15.8547 7.31786 15.7419 7.40284C15.6291 7.48781 15.5181 7.57504 15.4089 7.66453C15.2996 7.75402 15.1922 7.8457 15.0868 7.93956C14.9812 8.03341 14.8777 8.12938 14.7761 8.22746C14.6745 8.32553 14.575 8.42563 14.4775 8.52776C14.3799 8.6299 14.2845 8.73397 14.1912 8.83996C14.1175 8.92361 14.0451 9.00843 13.9741 9.09442C13.9031 9.18042 13.8336 9.26753 13.7654 9.35576C13.6972 9.44399 13.6305 9.5333 13.5651 9.62371C13.4998 9.71406 13.436 9.80547 13.3736 9.89794C13.3112 9.99035 13.2503 10.0837 13.1909 10.1781C13.1315 10.2725 13.0737 10.3678 13.0174 10.4641C12.9611 10.5603 12.9063 10.6574 12.8532 10.7554C12.7999 10.8534 12.7483 10.9523 12.6983 11.0519C12.6483 11.1516 12.5999 11.2521 12.5531 11.3533C12.5063 11.4545 12.4612 11.5564 12.4176 11.6591C12.3741 11.7617 12.3323 11.8651 12.2922 11.9691C12.2519 12.0731 12.2134 12.1777 12.1766 12.283C12.1398 12.3883 12.1047 12.4941 12.0712 12.6005C12.0378 12.7068 12.0061 12.8137 11.9761 12.9211C11.9461 13.0286 11.9179 13.1364 11.8913 13.2447C11.8648 13.353 11.84 13.4617 11.817 13.5708C11.5705 14.7304 11.5843 15.9075 11.5845 17.0864L11.5809 27.8438L11.5862 30.8587C11.5862 31.384 11.5962 31.9117 11.5787 32.4366ZM0 23.2221V44H20.5408L20.5329 43.9773C19.9269 43.9058 19.3172 43.8614 18.7139 43.7673C15.6178 43.2846 13.1517 42.3342 10.4588 40.7569C10.0344 40.4568 9.581 40.1961 9.15776 39.8912C8.12191 39.145 7.18666 38.3138 6.28849 37.4093C6.10617 37.226 5.9272 37.0395 5.75158 36.8497C5.57597 36.66 5.40381 36.4672 5.23512 36.2713C5.06643 36.0754 4.90132 35.8765 4.73979 35.6746C4.57825 35.4728 4.42039 35.2681 4.2662 35.0606C4.11202 34.8531 3.96162 34.6429 3.81499 34.4299C3.66836 34.217 3.52561 34.0015 3.38673 33.7835C3.24785 33.5654 3.11293 33.345 2.98197 33.122C2.85101 32.8991 2.7241 32.6739 2.60124 32.4465C2.47837 32.219 2.35963 31.9894 2.24502 31.7577C2.13042 31.5259 2.02001 31.2922 1.91379 31.0565C1.80758 30.8208 1.70564 30.5833 1.60797 30.3439C1.51029 30.1046 1.41695 29.8635 1.32794 29.6208C1.23893 29.3781 1.1543 29.1338 1.07407 28.8881C0.993841 28.6423 0.918051 28.3952 0.846702 28.1467C0.775352 27.8982 0.708489 27.6485 0.646113 27.3976C0.583738 27.1468 0.525889 26.8948 0.472568 26.6418C0.234755 25.5523 0.0396261 24.3947 0.0432941 23.2776L0 23.2221ZM0 0V20.7873L0.0458489 20.6848C0.0432983 20.6603 0.0420398 20.6528 0.0420422 20.6251C0.0421363 19.5433 0.244596 18.4193 0.471503 17.3636C0.521368 17.1298 0.57505 16.8969 0.632551 16.6648C0.690051 16.4328 0.751339 16.2018 0.816413 15.9717C0.881486 15.7417 0.950311 15.5128 1.02289 15.2851C1.09547 15.0573 1.17176 14.8308 1.25177 14.6055C1.33177 14.3802 1.41544 14.1563 1.50279 13.9338C1.59013 13.7113 1.6811 13.4903 1.77569 13.2707C1.87028 13.0512 1.96844 12.8332 2.07017 12.6169C2.17191 12.4006 2.27717 12.1861 2.38593 11.9732C2.49471 11.7603 2.60694 11.5492 2.72262 11.3401C2.83831 11.1309 2.9574 10.9236 3.07988 10.7183C3.20236 10.513 3.32818 10.3098 3.45732 10.1087C3.58646 9.90751 3.71887 9.7085 3.85454 9.51165C3.99021 9.31485 4.12907 9.12032 4.27111 8.92805C4.41316 8.73578 4.55832 8.54588 4.70659 8.35835C4.85486 8.17083 5.00617 7.9858 5.1605 7.80325C5.31484 7.6207 5.47213 7.44072 5.63237 7.26333C6.11868 6.72279 6.65936 6.19766 7.18912 5.69963C7.96971 4.9658 8.84623 4.30018 9.73698 3.70642C10.0484 3.49628 10.3651 3.29438 10.6871 3.10074C11.009 2.90709 11.3358 2.72194 11.6674 2.54531C11.999 2.36867 12.335 2.20078 12.6753 2.04163C13.0156 1.88248 13.3599 1.7323 13.708 1.59108C14.0561 1.44986 14.4077 1.31779 14.7628 1.19487C15.1178 1.07195 15.4758 0.958349 15.8367 0.854071C16.1977 0.749791 16.5611 0.654971 16.927 0.569612C17.2929 0.484252 17.6607 0.408469 18.0305 0.342261C18.7369 0.209988 19.4139 0.120169 20.1317 0.0758112C20.3257 0.063825 20.5232 0.0385516 20.7176 0.0449128L20.7686 0H0ZM23.2289 0L23.2879 0.0459987C23.376 0.0434587 23.4604 0.0485673 23.5482 0.0575896C23.8668 0.0739955 24.1908 0.0797976 24.5082 0.112691C25.3157 0.196396 26.1291 0.357455 26.9202 0.536639C27.0569 0.567724 27.1933 0.600116 27.3294 0.633816C27.4655 0.667515 27.6012 0.702514 27.7367 0.738815C27.8721 0.775116 28.0071 0.812711 28.1418 0.8516C28.2765 0.890488 28.4108 0.930663 28.5447 0.972125C28.6787 1.01359 28.8122 1.05634 28.9453 1.10036C29.0784 1.14438 29.211 1.18967 29.3433 1.23624C29.4756 1.2828 29.6074 1.33063 29.7387 1.37972C29.87 1.42881 30.0008 1.47916 30.1311 1.53075C30.2615 1.58235 30.3914 1.63519 30.5207 1.68928C30.6501 1.74337 30.7789 1.79869 30.9072 1.85524C31.0354 1.9118 31.1632 1.96958 31.2904 2.02858C31.4175 2.08759 31.5441 2.1478 31.6701 2.20923C31.7962 2.27066 31.9216 2.3333 32.0464 2.39713C32.1713 2.46097 32.2955 2.52599 32.4191 2.5922C32.5426 2.65841 32.6655 2.72581 32.7878 2.79438C32.9101 2.86294 33.0317 2.93268 33.1526 3.00358C33.2736 3.07448 33.3939 3.14654 33.5135 3.21974C33.633 3.29295 33.7519 3.3673 33.87 3.44278C33.9882 3.51826 34.1056 3.59487 34.2222 3.6726C34.3389 3.75033 34.4548 3.82918 34.57 3.90913C34.6852 3.98909 34.7995 4.07014 34.9131 4.15229C35.0267 4.23444 35.1396 4.31767 35.2516 4.40198C35.3636 4.48629 35.4748 4.57166 35.5852 4.6581C35.6956 4.74454 35.8051 4.83203 35.9138 4.92057C36.0225 5.00911 36.1303 5.09869 36.2374 5.18929C36.3443 5.2799 36.4504 5.37152 36.5557 5.46416C36.6609 5.5568 36.7652 5.65044 36.8686 5.74509C36.9721 5.83973 37.0746 5.93535 37.1762 6.03195C37.2778 6.12856 37.3785 6.22613 37.4782 6.32466C37.5779 6.42319 37.6767 6.52267 37.7745 6.6231C37.8724 6.72353 37.9692 6.82488 38.0651 6.92716C38.161 7.02945 38.2559 7.13264 38.3498 7.23674C41.2547 10.4225 43.0029 14.2253 43.7478 18.4491C43.8115 18.8104 43.8573 19.1846 43.8946 19.5496C43.9213 19.8107 43.8941 20.5948 44 20.7787V0H23.8262H23.2289ZM0.0458489 20.6848L0 20.7873V23.2221L0.0432941 23.2776C0.0713323 23.1131 0.0181662 22.3579 0.017485 22.137C0.0166793 21.8756 0.0136528 21.6133 0.0240217 21.3521C0.0328373 21.1301 0.0555149 20.907 0.0458489 20.6848ZM20.7686 0L20.7176 0.0449128C21.1093 0.0682981 21.5148 0.00838818 21.9089 0.00878522C22.2009 0.010127 22.4928 0.0170995 22.7846 0.0297025C22.9494 0.0363834 23.1234 0.0558573 23.2879 0.0459987L23.2289 0H20.7686Z" fill="#FFB357"/>
<path d="M20.7686 0H23.2289L23.2879 0.0459987C23.1234 0.0558573 22.9494 0.0363834 22.7846 0.0297025C22.4928 0.0170995 22.2009 0.010127 21.9089 0.00878522C21.5148 0.00838818 21.1093 0.0682981 20.7176 0.0449128L20.7686 0Z" fill="#FEDA46" fill-opacity="0.968627"/>
<path d="M0.0458489 20.6848C0.0555149 20.907 0.0328373 21.1301 0.0240217 21.3521C0.0136528 21.6133 0.0166793 21.8756 0.017485 22.137C0.0181662 22.3579 0.0713323 23.1131 0.0432941 23.2776L0 23.2221V20.7873L0.0458489 20.6848Z" fill="#FEDA46" fill-opacity="0.980392"/>
<path d="M11.5787 32.4366C11.5862 33.0261 11.588 33.6157 11.5842 34.2053C11.5842 35.1141 11.5882 35.9653 11.9085 36.8332C12.0113 37.1115 12.1338 37.4087 12.2886 37.6625C12.3879 37.8251 12.5654 38.0084 12.6274 38.1832C12.2049 38.3089 11.7809 38.4292 11.3554 38.5442C11.1378 38.6044 10.9002 38.6897 10.6766 38.7187C10.765 37.6433 10.9079 36.5658 11.0238 35.4924C11.1017 34.7707 11.1454 33.9631 11.2833 33.2601C11.335 32.9966 11.4085 32.6502 11.5787 32.4366Z" fill="#FEC3B1"/>
<path d="M23.2289 0H23.8262C23.753 0.0261764 23.6893 0.0229145 23.6124 0.0209193L23.5482 0.0575896C23.4604 0.0485673 23.376 0.0434587 23.2879 0.0459987L23.2289 0Z" fill="#FEDA46" fill-opacity="0.0117647"/>
<path d="M11.5787 32.4366C11.5962 31.9117 11.5862 31.384 11.5862 30.8587L11.5809 27.8438L11.5845 17.0864C11.5843 15.9075 11.5705 14.7304 11.817 13.5708C11.84 13.4617 11.8648 13.353 11.8913 13.2447C11.9179 13.1364 11.9461 13.0286 11.9761 12.9211C12.0061 12.8137 12.0378 12.7068 12.0712 12.6005C12.1047 12.4941 12.1398 12.3883 12.1766 12.283C12.2134 12.1777 12.2519 12.0731 12.2922 11.9691C12.3323 11.8651 12.3741 11.7617 12.4176 11.6591C12.4612 11.5564 12.5063 11.4545 12.5531 11.3533C12.5999 11.2521 12.6483 11.1516 12.6983 11.0519C12.7483 10.9523 12.7999 10.8534 12.8532 10.7554C12.9063 10.6574 12.9611 10.5603 13.0174 10.4641C13.0737 10.3678 13.1315 10.2725 13.1909 10.1781C13.2503 10.0837 13.3112 9.99035 13.3736 9.89794C13.436 9.80547 13.4998 9.71406 13.5651 9.62371C13.6305 9.5333 13.6972 9.44399 13.7654 9.35576C13.8336 9.26753 13.9031 9.18042 13.9741 9.09442C14.0451 9.00843 14.1175 8.92361 14.1912 8.83996C14.2845 8.73397 14.3799 8.6299 14.4775 8.52776C14.575 8.42563 14.6745 8.32553 14.7761 8.22746C14.8777 8.12938 14.9812 8.03341 15.0868 7.93956C15.1922 7.8457 15.2996 7.75402 15.4089 7.66453C15.5181 7.57504 15.6291 7.48781 15.7419 7.40284C15.8547 7.31786 15.9691 7.23522 16.0853 7.15491C16.2014 7.07459 16.3191 6.99667 16.4385 6.92115C16.5578 6.84563 16.6786 6.77256 16.8009 6.70196C16.9232 6.63135 17.0469 6.56326 17.1719 6.49768C17.297 6.43211 17.4233 6.3691 17.5509 6.30867C17.6786 6.24824 17.8074 6.19043 17.9374 6.13524C18.0673 6.08005 18.1984 6.02753 18.3305 5.97768C18.4626 5.92782 18.5957 5.88067 18.7297 5.83623C18.8637 5.79179 18.9986 5.75009 19.1344 5.71114C19.2701 5.67219 19.4066 5.63601 19.5438 5.60262C19.681 5.56922 19.8188 5.53862 19.9573 5.51084C20.6354 5.37861 21.3113 5.3374 21.9993 5.29921C21.9973 5.52979 21.9525 6.33866 22.0174 6.50765L21.9966 6.5132C21.9922 7.33456 21.9869 8.15736 21.997 8.97866L22.18 8.99843L22.0048 9.00771C21.9591 9.14203 21.993 9.67802 21.993 9.86331L21.9926 13.1844C21.9925 13.4374 21.99 13.6908 21.9934 13.9438C21.9951 14.0746 22.019 14.2293 21.9957 14.3571C22.002 14.513 22.0062 14.6897 22.0503 14.8394C22.0376 14.9085 22.0225 14.9646 21.9931 15.0285C22.0118 15.4137 21.9985 15.8027 21.9977 16.1884L21.9965 23.1385C21.9966 24.0533 21.9854 24.9702 22.0013 25.8847C21.9555 25.8846 21.9097 25.8823 21.864 25.8777C21.8184 25.8731 21.7732 25.8663 21.7282 25.8574C21.6832 25.8484 21.6388 25.8373 21.5949 25.824C21.551 25.8108 21.5078 25.7954 21.4654 25.7779C21.423 25.7604 21.3815 25.7409 21.341 25.7195C21.3005 25.698 21.2612 25.6746 21.223 25.6493C21.1847 25.6239 21.1478 25.5968 21.1122 25.568C21.0766 25.539 21.0425 25.5085 21.0098 25.4763C20.7351 25.2017 20.6041 24.8511 20.5786 24.4686L19.5453 24.4719C19.6298 25.2345 19.8503 25.8807 20.4718 26.3739C20.9352 26.7416 21.425 26.8604 21.9996 26.9223C21.995 27.5222 21.9942 28.1221 21.997 28.7219C22.0023 28.8613 22.0046 28.999 22.0003 29.1384C21.9765 30.5785 21.9961 32.0214 21.9966 33.4618L21.9972 34.799C21.9974 35.0563 21.9782 35.331 22.0153 35.5853L21.9979 35.5975C21.9616 37.5781 21.9969 39.566 21.9968 41.5472V43.1383C21.9967 43.4232 22.0092 43.7159 21.9901 44H21.4241H20.5408L20.5329 43.9773C19.9269 43.9058 19.3172 43.8614 18.7139 43.7673C15.6178 43.2846 13.1517 42.3342 10.4588 40.7569C10.4645 40.4989 10.507 40.2343 10.5347 39.9774C10.578 39.5573 10.6253 39.1378 10.6766 38.7187C10.9002 38.6897 11.1378 38.6044 11.3554 38.5442C11.7809 38.4292 12.2049 38.3089 12.6274 38.1832C12.5654 38.0084 12.3879 37.8251 12.2886 37.6625C12.1338 37.4087 12.0113 37.1115 11.9085 36.8332C11.5882 35.9653 11.5842 35.1141 11.5842 34.2053C11.588 33.6157 11.5862 33.0261 11.5787 32.4366ZM17.8597 36.743C17.8415 37.4349 17.8557 38.13 17.8566 38.8222C17.8572 39.2912 17.8359 39.7707 17.8645 40.2381C17.3375 40.2397 16.8026 40.2582 16.2775 40.2065C15.1299 40.0934 13.9975 39.5996 13.1762 38.78C12.9868 38.591 12.8219 38.3628 12.6274 38.1832C12.2049 38.3089 11.7809 38.4292 11.3554 38.5442C11.1378 38.6044 10.9002 38.6897 10.6766 38.7187C10.6253 39.1378 10.578 39.5573 10.5347 39.9774C10.507 40.2343 10.4645 40.4989 10.4588 40.7569C13.1517 42.3342 15.6178 43.2846 18.7139 43.7673C19.3172 43.8614 19.9269 43.9058 20.5329 43.9773L20.5408 44H21.4241H21.9901C22.0092 43.7159 21.9967 43.4232 21.9968 43.1383V41.5472C21.9969 39.566 21.9616 37.5781 21.9979 35.5975C20.6155 35.9687 19.2361 36.3505 17.8597 36.743Z" fill="#AB6F4E"/>
<path d="M21.8976 14.9246C21.943 14.7464 21.9361 14.5566 21.9656 14.3746L21.9957 14.3571C22.002 14.513 22.0062 14.6897 22.0503 14.8394C22.0376 14.9085 22.0225 14.9646 21.9931 15.0285C21.9728 14.9805 21.9368 14.9562 21.8976 14.9246Z" fill="#FEC3B1"/>
<path d="M21.997 8.97866C21.828 8.97758 21.6592 8.98098 21.4904 8.98889C21.3216 8.99674 21.1531 9.00909 20.985 9.02593C20.8168 9.04277 20.6493 9.06403 20.4823 9.0897C20.3153 9.11542 20.149 9.14555 19.9836 9.1801C19.8182 9.21465 19.6539 9.25355 19.4905 9.2968C19.3272 9.34 19.1651 9.38756 19.0043 9.43946C18.8435 9.49131 18.6842 9.54737 18.5263 9.60764C18.3684 9.66797 18.2123 9.73242 18.0579 9.801C15.6789 10.8634 13.7587 12.8828 13.0079 15.4019C12.8981 15.7706 12.8024 16.1485 12.7488 16.5297C12.7248 16.7011 12.7292 17.1279 12.6753 17.2687L12.6641 17.258C12.6479 16.9733 12.6376 16.6884 12.6332 16.4033C12.6264 15.7608 12.6197 15.1084 12.6928 14.4692C12.9177 12.5034 13.8118 10.7215 15.1926 9.31244C16.981 7.48755 19.4623 6.54084 21.9966 6.5132C21.9922 7.33456 21.9869 8.15736 21.997 8.97866Z" fill="#FE81AD"/>
<path d="M19.0585 28.5819C19.3059 28.659 19.5466 28.7528 19.7966 28.8226C20.5189 29.0243 21.2346 29.0957 21.9813 29.1323C21.9844 28.9973 21.9801 28.8556 21.997 28.7219C22.0023 28.8613 22.0046 28.999 22.0003 29.1384C21.9765 30.5785 21.9961 32.0214 21.9966 33.4618L21.9972 34.799C21.9974 35.0563 21.9782 35.331 22.0153 35.5853L21.9979 35.5975C20.6155 35.9687 19.2361 36.3505 17.8597 36.743C17.8294 36.0473 17.8544 35.3403 17.8542 34.6436L17.8539 30.5814C18.2548 30.5488 18.6559 30.4918 19.0551 30.4414C19.0507 29.8215 19.0518 29.2017 19.0585 28.5819Z" fill="#FEC3B1"/>
<path d="M17.8597 36.743C19.2361 36.3505 20.6155 35.9687 21.9979 35.5975C21.9616 37.5781 21.9969 39.566 21.9968 41.5472V43.1383C21.9967 43.4232 22.0092 43.7159 21.9901 44H21.4241H20.5408L20.5329 43.9773C19.9269 43.9058 19.3172 43.8614 18.7139 43.7673C15.6178 43.2846 13.1517 42.3342 10.4588 40.7569C10.4645 40.4989 10.507 40.2343 10.5347 39.9774C10.578 39.5573 10.6253 39.1378 10.6766 38.7187C10.9002 38.6897 11.1378 38.6044 11.3554 38.5442C11.7809 38.4292 12.2049 38.3089 12.6274 38.1832C12.8219 38.3628 12.9868 38.591 13.1762 38.78C13.9975 39.5996 15.1299 40.0934 16.2775 40.2065C16.8026 40.2582 17.3375 40.2397 17.8645 40.2381C17.8359 39.7707 17.8572 39.2912 17.8566 38.8222C17.8557 38.13 17.8415 37.4349 17.8597 36.743ZM20.5329 43.9773L20.5408 44H21.4241C21.2464 43.9482 20.7048 43.9117 20.5329 43.9773Z" fill="#8979CA"/>
<path d="M20.5329 43.9773C20.7048 43.9117 21.2464 43.9482 21.4241 44H20.5408L20.5329 43.9773Z" fill="#BD8693" fill-opacity="0.964706"/>
<path d="M21.8976 14.9246C21.9368 14.9562 21.9728 14.9805 21.9931 15.0285C22.0118 15.4137 21.9985 15.8027 21.9977 16.1884L21.9965 23.1385C21.9966 24.0533 21.9854 24.9702 22.0013 25.8847C21.9555 25.8846 21.9097 25.8823 21.864 25.8777C21.8184 25.8731 21.7732 25.8663 21.7282 25.8574C21.6832 25.8484 21.6388 25.8373 21.5949 25.824C21.551 25.8108 21.5078 25.7954 21.4654 25.7779C21.423 25.7604 21.3815 25.7409 21.341 25.7195C21.3005 25.698 21.2612 25.6746 21.223 25.6493C21.1847 25.6239 21.1478 25.5968 21.1122 25.568C21.0766 25.539 21.0425 25.5085 21.0098 25.4763C20.7351 25.2017 20.6041 24.8511 20.5786 24.4686L19.5453 24.4719C19.6298 25.2345 19.8503 25.8807 20.4718 26.3739C20.9352 26.7416 21.425 26.8604 21.9996 26.9223C21.995 27.5222 21.9942 28.1221 21.997 28.7219C21.9801 28.8556 21.9844 28.9973 21.9813 29.1323C21.2346 29.0957 20.5189 29.0243 19.7966 28.8226C19.5466 28.7528 19.3059 28.659 19.0585 28.5819C18.7473 28.4519 18.4368 28.3101 18.1399 28.15C18.05 28.1014 17.9611 28.0511 17.8732 27.999C17.7853 27.947 17.6984 27.8934 17.6125 27.8381C17.5266 27.7828 17.4418 27.7259 17.358 27.6674C17.2742 27.6089 17.1916 27.5489 17.1101 27.4873C17.0285 27.4257 16.9482 27.3626 16.8691 27.298C16.79 27.2333 16.7121 27.1673 16.6355 27.0997C16.5589 27.0322 16.4835 26.9632 16.4094 26.8928C16.3354 26.8224 16.2627 26.7507 16.1914 26.6775C16.1201 26.6044 16.0501 26.53 15.9816 26.4542C15.913 26.3784 15.846 26.3014 15.7804 26.2231C15.7147 26.1448 15.6506 26.0653 15.5879 25.9847C15.5253 25.9039 15.4642 25.8221 15.4046 25.7391C15.3451 25.656 15.2871 25.5719 15.2307 25.4867C15.1743 25.4016 15.1196 25.3154 15.0664 25.2282C15.0133 25.1409 14.9618 25.0527 14.912 24.9635C14.8621 24.8743 14.814 24.7842 14.7676 24.6932C14.6363 24.4325 14.4995 24.1615 14.4159 23.8815C14.2725 23.9022 14.1342 23.91 13.9898 23.9005C13.9518 23.8983 13.914 23.8951 13.8762 23.8909C13.8384 23.8868 13.8008 23.8817 13.7632 23.8756C13.7257 23.8695 13.6884 23.8625 13.6512 23.8546C13.614 23.8467 13.577 23.8379 13.5403 23.8281C13.5035 23.8183 13.4671 23.8076 13.4309 23.7959C13.3947 23.7843 13.3588 23.7718 13.3232 23.7584C13.2877 23.745 13.2525 23.7306 13.2176 23.7154C13.1828 23.7002 13.1484 23.6842 13.1143 23.6673C13.0803 23.6503 13.0467 23.6325 13.0136 23.6139C12.9804 23.5953 12.9478 23.5759 12.9156 23.5556C12.8834 23.5354 12.8518 23.5143 12.8207 23.4925C12.7896 23.4706 12.759 23.448 12.7291 23.4246C12.6991 23.4012 12.6697 23.3771 12.641 23.3522C12.6122 23.3274 12.5841 23.3018 12.5567 23.2755C12.5292 23.2492 12.5024 23.2223 12.4763 23.1947C12.4502 23.167 12.4248 23.1388 12.4001 23.1099C12.3756 23.0816 12.3519 23.0527 12.3289 23.0232C12.3058 22.9937 12.2835 22.9637 12.2619 22.9331C12.2404 22.9025 12.2196 22.8714 12.1995 22.8399C12.1795 22.8082 12.1603 22.7762 12.1418 22.7436C12.1233 22.7111 12.1057 22.6781 12.0889 22.6447C12.0721 22.6113 12.0561 22.5775 12.0409 22.5433C12.0257 22.5091 12.0114 22.4745 11.9979 22.4396C11.9844 22.4047 11.9718 22.3695 11.9601 22.334C11.9483 22.2984 11.9375 22.2627 11.9275 22.2266C11.9176 22.1905 11.9085 22.1542 11.9003 22.1177C11.8921 22.0812 11.8848 22.0445 11.8784 22.0076C11.872 21.9708 11.8665 21.9338 11.862 21.8967C11.8574 21.8595 11.8537 21.8223 11.851 21.785C11.8482 21.7477 11.8464 21.7103 11.8455 21.6729C11.8446 21.6355 11.8446 21.5981 11.8455 21.5607C11.8465 21.5233 11.8484 21.4859 11.8511 21.4486C11.9125 20.6763 12.2776 20.1866 12.8482 19.7009C12.8311 20.2752 12.8429 20.8532 12.8425 21.428C12.8422 21.8177 12.8017 22.257 12.876 22.6401C12.8855 22.6902 12.898 22.7396 12.9133 22.7883C12.9287 22.837 12.9468 22.8846 12.9677 22.9311C12.9887 22.9777 13.0123 23.0228 13.0385 23.0666C13.0648 23.1103 13.0935 23.1524 13.1247 23.1928C13.3862 23.5281 13.7381 23.6497 14.1483 23.6982C14.2101 22.5893 13.9994 21.4132 14.3122 20.3289C14.3252 20.2823 14.3391 20.236 14.3538 20.19C14.3685 20.1439 14.384 20.0981 14.4004 20.0527C14.4168 20.0072 14.4339 19.962 14.4519 19.9171C14.47 19.8723 14.4888 19.8278 14.5084 19.7836C14.5281 19.7394 14.5485 19.6956 14.5697 19.6522C14.5909 19.6088 14.613 19.5657 14.6358 19.5231C14.6586 19.4805 14.6821 19.4383 14.7064 19.3965C14.7307 19.3548 14.7558 19.3134 14.7817 19.2726C14.8075 19.2318 14.834 19.1914 14.8613 19.1514C14.8886 19.1116 14.9166 19.0722 14.9454 19.0333C14.9741 18.9944 15.0035 18.9561 15.0336 18.9183C15.0638 18.8805 15.0946 18.8432 15.1261 18.8066C15.1576 18.7699 15.1897 18.7338 15.2225 18.6983C15.2553 18.6628 15.2887 18.6279 15.3228 18.5936C15.3569 18.5593 15.3915 18.5256 15.4268 18.4926C15.4621 18.4596 15.498 18.4272 15.5345 18.3954C15.5709 18.3638 15.608 18.3327 15.6456 18.3023C15.6832 18.2719 15.7213 18.2422 15.76 18.2132C15.7987 18.1843 15.8379 18.156 15.8776 18.1284C15.9173 18.1009 15.9575 18.074 15.9982 18.0479C16.0389 18.0218 16.08 17.9965 16.1216 17.9719C16.1632 17.9473 16.2053 17.9234 16.2478 17.9004C16.2902 17.8773 16.3331 17.855 16.3764 17.8335C16.4197 17.812 16.4633 17.7912 16.5074 17.7713C16.5514 17.7514 16.5958 17.7323 16.6405 17.714C16.6853 17.6956 16.7303 17.6781 16.7757 17.6614C16.8211 17.6448 16.8667 17.6289 16.9127 17.6139C16.9586 17.599 17.0048 17.5848 17.0513 17.5715C17.0978 17.5581 17.1444 17.5456 17.1914 17.534C17.2383 17.5224 17.2854 17.5116 17.3327 17.5017C17.3801 17.4918 17.4275 17.4827 17.4751 17.4745C17.5228 17.4664 17.5706 17.4591 17.6185 17.4526C18.6306 17.3212 19.3946 17.5037 20.3507 16.9693C21.1556 16.5193 21.6467 15.7975 21.8976 14.9246Z" fill="#FEDDCF"/>
<path d="M18.2517 19.7085C18.3808 19.7212 18.4962 19.7405 18.6122 19.8041C18.7693 19.8902 18.8701 20.0386 18.9192 20.2084C19.0052 20.5051 19.0058 21.5219 18.8476 21.7856C18.7229 21.9935 18.5284 22.0658 18.306 22.1215C18.1591 22.1148 17.9981 22.0764 17.8753 21.9934C17.7005 21.8752 17.6166 21.6884 17.5843 21.4856C17.5399 21.2068 17.5384 20.5437 17.5954 20.2697C17.6173 20.1645 17.6584 20.0613 17.7234 19.9752C17.855 19.8012 18.043 19.7338 18.2517 19.7085Z" fill="#414041"/>
<path d="M21.9993 5.29921C22.0842 5.29913 22.169 5.3001 22.2539 5.30209C22.3387 5.30409 22.4235 5.30713 22.5083 5.3112C22.5931 5.31527 22.6778 5.32038 22.7624 5.32653C22.8471 5.33267 22.9316 5.33985 23.016 5.34806C23.1005 5.35628 23.1849 5.36552 23.2691 5.37579C23.3534 5.38607 23.4375 5.39738 23.5214 5.40971C23.6054 5.42204 23.6892 5.4354 23.7729 5.44979C23.8565 5.46417 23.9399 5.47957 24.0232 5.496C24.1065 5.51242 24.1895 5.52986 24.2724 5.54831C24.3552 5.56677 24.4378 5.58623 24.5201 5.60671C24.6025 5.62718 24.6846 5.64866 24.7664 5.67114C24.8483 5.69363 24.9298 5.7171 25.0111 5.74158C25.0923 5.76606 25.1733 5.79153 25.2539 5.81799C25.3345 5.84444 25.4148 5.87188 25.4948 5.90031C25.5748 5.92872 25.6544 5.95812 25.7336 5.98849C25.8129 6.01885 25.8917 6.05018 25.9702 6.08248C26.0487 6.11478 26.1268 6.14803 26.2044 6.18224C26.2821 6.21644 26.3594 6.2516 26.4362 6.28769C26.513 6.32379 26.5893 6.36082 26.6652 6.39878C26.7411 6.43674 26.8165 6.47563 26.8915 6.51544C26.9664 6.55524 27.0409 6.59596 27.1148 6.63759C27.1888 6.67922 27.2622 6.72175 27.3352 6.76517C27.4081 6.80859 27.4805 6.8529 27.5522 6.8981C27.6241 6.94329 27.6954 6.98936 27.7661 7.0363C27.8368 7.08324 27.9069 7.13103 27.9764 7.17968C28.046 7.22834 28.1149 7.27783 28.1832 7.32817C28.2516 7.37851 28.3193 7.42968 28.3864 7.48167C28.4534 7.53366 28.5198 7.58646 28.5856 7.64008C28.6514 7.6937 28.7165 7.74812 28.781 7.80333C28.8454 7.85854 28.9092 7.91453 28.9723 7.9713C29.0354 8.02808 29.0977 8.08561 29.1594 8.14391C29.2211 8.2022 29.282 8.26125 29.3422 8.32104C29.6656 8.64579 29.97 8.98746 30.2554 9.34605C30.3281 9.36633 30.3806 9.38841 30.4364 9.44023C30.9152 9.88548 31.3705 10.3693 31.8336 10.832L42.7115 21.7092C42.9493 21.9471 43.6683 22.7304 43.8891 22.8675C43.9398 22.8988 43.951 22.8821 44 22.8587V23.3915V44H23.606H21.9901C22.0092 43.7159 21.9967 43.4232 21.9968 43.1383V41.5472C21.9969 39.566 21.9616 37.5781 21.9979 35.5975L22.0153 35.5853C21.9782 35.331 21.9974 35.0563 21.9972 34.799L21.9966 33.4618C21.9961 32.0214 21.9765 30.5785 22.0003 29.1384C22.0046 28.999 22.0023 28.8613 21.997 28.7219C21.9942 28.1221 21.995 27.5222 21.9996 26.9223C21.425 26.8604 20.9352 26.7416 20.4718 26.3739C19.8503 25.8807 19.6298 25.2345 19.5453 24.4719L20.5786 24.4686C20.6041 24.8511 20.7351 25.2017 21.0098 25.4763C21.0425 25.5085 21.0766 25.539 21.1122 25.568C21.1478 25.5968 21.1847 25.6239 21.223 25.6493C21.2612 25.6746 21.3005 25.698 21.341 25.7195C21.3815 25.7409 21.423 25.7604 21.4654 25.7779C21.5078 25.7954 21.551 25.8108 21.5949 25.824C21.6388 25.8373 21.6832 25.8484 21.7282 25.8574C21.7732 25.8663 21.8184 25.8731 21.864 25.8777C21.9097 25.8823 21.9555 25.8846 22.0013 25.8847C21.9854 24.9702 21.9966 24.0533 21.9965 23.1385L21.9977 16.1884C21.9985 15.8027 22.0118 15.4137 21.9931 15.0285C22.0225 14.9646 22.0376 14.9085 22.0503 14.8394C22.0062 14.6897 22.002 14.513 21.9957 14.3571C22.019 14.2293 21.9951 14.0746 21.9934 13.9438C21.99 13.6908 21.9925 13.4374 21.9926 13.1844L21.993 9.86331C21.993 9.67802 21.9591 9.14203 22.0048 9.00771L22.18 8.99843L21.997 8.97866C21.9869 8.15736 21.9922 7.33456 21.9966 6.5132L22.0174 6.50765C21.9525 6.33866 21.9973 5.52979 21.9993 5.29921ZM44 23.3915C43.9978 23.3969 43.9954 23.4023 43.9933 23.4078C43.883 23.698 43.9215 24.1172 43.8952 24.4285C43.8746 24.6698 43.8395 24.9129 43.8057 25.1528C43.6882 25.9854 43.5085 26.8223 43.2963 27.6358C43.2517 27.8042 43.2051 27.9721 43.1565 28.1394C43.1079 28.3067 43.0574 28.4734 43.0048 28.6394C42.9523 28.8056 42.8978 28.9711 42.8413 29.1358C42.7848 29.3006 42.7264 29.4648 42.6661 29.6282C42.6057 29.7916 42.5434 29.9543 42.4792 30.1163C42.4149 30.2782 42.3488 30.4394 42.2807 30.5998C42.2127 30.7601 42.1427 30.9197 42.0709 31.0784C41.9991 31.2371 41.9254 31.3949 41.8498 31.5519C41.7742 31.7088 41.6968 31.8649 41.6175 32.0201C41.5382 32.1752 41.4571 32.3294 41.3742 32.4826C41.2912 32.6358 41.2065 32.788 41.1199 32.9392C41.0333 33.0903 40.945 33.2405 40.8549 33.3896C40.7647 33.5387 40.6729 33.6867 40.5793 33.8337C40.4856 33.9806 40.3903 34.1264 40.2932 34.271C40.1961 34.4157 40.0973 34.5592 39.9968 34.7015C39.8963 34.8438 39.7941 34.9849 39.6903 35.1247C39.5864 35.2646 39.4809 35.4033 39.3738 35.5407C39.2667 35.678 39.158 35.8141 39.0476 35.9489C38.9372 36.0838 38.8253 36.2172 38.7118 36.3494C38.5983 36.4815 38.4832 36.6123 38.3665 36.7417C38.2499 36.8711 38.1317 36.9992 38.012 37.1258C37.8924 37.2524 37.7713 37.3776 37.6486 37.5013C37.526 37.6251 37.4019 37.7473 37.2763 37.8681C37.1508 37.9889 37.0239 38.1082 36.8955 38.2259C36.7671 38.3437 36.6374 38.46 36.5062 38.5747C36.3751 38.6894 36.2426 38.8025 36.1088 38.9141C35.975 39.0257 35.8399 39.1356 35.7035 39.244C35.567 39.3524 35.4293 39.4591 35.2904 39.5642C35.1515 39.6692 35.0113 39.7727 34.8698 39.8744C34.7284 39.9762 34.5858 40.0762 34.442 40.1747C34.2983 40.273 34.1534 40.3697 34.0073 40.4646C33.8612 40.5596 33.714 40.6527 33.5657 40.7442C33.2797 40.9524 32.9313 41.1157 32.6217 41.2895C32.3586 41.4354 32.0925 41.5757 31.8234 41.7105C31.5544 41.8452 31.2827 41.9743 31.0083 42.0976C30.7339 42.221 30.457 42.3386 30.1777 42.4504C29.8984 42.5622 29.6168 42.6681 29.333 42.7682C29.0493 42.8682 28.7636 42.9623 28.4759 43.0504C28.1882 43.1385 27.8988 43.2205 27.6077 43.2965C27.3166 43.3725 27.024 43.4424 26.73 43.5062C26.4359 43.57 26.1407 43.6276 25.8442 43.679C25.5832 43.7256 25.3212 43.7723 25.058 43.8054C24.7676 43.8418 23.8056 43.9064 23.606 44H44V23.3915Z" fill="#FFB357"/>
<path d="M22.0003 29.1384C23.0513 29.1351 23.9791 28.9571 24.963 28.5996C24.977 29.2015 24.978 29.8106 24.9656 30.4126C26.3063 30.6261 27.6733 30.7502 29.0222 30.9103C29.6282 30.9821 30.2759 31.0135 30.8657 31.1692C31.1755 31.251 31.5539 31.4173 31.7868 31.6418C32.1252 31.9217 32.3924 32.2471 32.5588 32.6565C32.833 33.3394 32.8606 34.3308 32.9409 35.0731L33.3457 38.7914C33.4154 39.4365 33.4505 40.1072 33.5657 40.7442C33.2797 40.9524 32.9313 41.1157 32.6217 41.2895C32.3586 41.4354 32.0925 41.5757 31.8234 41.7105C31.5544 41.8452 31.2827 41.9743 31.0083 42.0976C30.7339 42.221 30.457 42.3386 30.1777 42.4504C29.8984 42.5622 29.6168 42.6681 29.333 42.7682C29.0493 42.8682 28.7636 42.9623 28.4759 43.0504C28.1882 43.1385 27.8988 43.2205 27.6077 43.2965C27.3166 43.3725 27.024 43.4424 26.73 43.5062C26.4359 43.57 26.1407 43.6276 25.8442 43.679C25.5832 43.7256 25.3212 43.7723 25.058 43.8054C24.7676 43.8418 23.8056 43.9064 23.606 44H21.9901C22.0092 43.7159 21.9967 43.4232 21.9968 43.1383V41.5472C21.9969 39.566 21.9616 37.5781 21.9979 35.5975L22.0153 35.5853C21.9782 35.331 21.9974 35.0563 21.9972 34.799L21.9966 33.4618C21.9961 32.0214 21.9765 30.5785 22.0003 29.1384Z" fill="#8B79CC"/>
<path d="M22.0003 29.1384C23.0513 29.1351 23.9791 28.9571 24.963 28.5996C24.977 29.2015 24.978 29.8106 24.9656 30.4126C26.3063 30.6261 27.6733 30.7502 29.0222 30.9103C29.6282 30.9821 30.2759 31.0135 30.8657 31.1692C31.1755 31.251 31.5539 31.4173 31.7868 31.6418C32.1252 31.9217 32.3924 32.2471 32.5588 32.6565C31.6495 32.9306 30.7275 33.1705 29.8121 33.4238L24.8071 34.8081C23.8764 35.0655 22.9417 35.3134 22.0153 35.5853C21.9782 35.331 21.9974 35.0563 21.9972 34.799L21.9966 33.4618C21.9961 32.0214 21.9765 30.5785 22.0003 29.1384Z" fill="#FBA58F"/>
<path d="M21.9993 5.29921C22.0842 5.29913 22.169 5.3001 22.2539 5.30209C22.3387 5.30409 22.4235 5.30713 22.5083 5.3112C22.5931 5.31527 22.6778 5.32038 22.7624 5.32653C22.8471 5.33267 22.9316 5.33985 23.016 5.34806C23.1005 5.35628 23.1849 5.36552 23.2691 5.37579C23.3534 5.38607 23.4375 5.39738 23.5214 5.40971C23.6054 5.42204 23.6892 5.4354 23.7729 5.44979C23.8565 5.46417 23.9399 5.47957 24.0232 5.496C24.1065 5.51242 24.1895 5.52986 24.2724 5.54831C24.3552 5.56677 24.4378 5.58623 24.5201 5.60671C24.6025 5.62718 24.6846 5.64866 24.7664 5.67114C24.8483 5.69363 24.9298 5.7171 25.0111 5.74158C25.0923 5.76606 25.1733 5.79153 25.2539 5.81799C25.3345 5.84444 25.4148 5.87188 25.4948 5.90031C25.5748 5.92872 25.6544 5.95812 25.7336 5.98849C25.8129 6.01885 25.8917 6.05018 25.9702 6.08248C26.0487 6.11478 26.1268 6.14803 26.2044 6.18224C26.2821 6.21644 26.3594 6.2516 26.4362 6.28769C26.513 6.32379 26.5893 6.36082 26.6652 6.39878C26.7411 6.43674 26.8165 6.47563 26.8915 6.51544C26.9664 6.55524 27.0409 6.59596 27.1148 6.63759C27.1888 6.67922 27.2622 6.72175 27.3352 6.76517C27.4081 6.80859 27.4805 6.8529 27.5522 6.8981C27.6241 6.94329 27.6954 6.98936 27.7661 7.0363C27.8368 7.08324 27.9069 7.13103 27.9764 7.17968C28.046 7.22834 28.1149 7.27783 28.1832 7.32817C28.2516 7.37851 28.3193 7.42968 28.3864 7.48167C28.4534 7.53366 28.5198 7.58646 28.5856 7.64008C28.6514 7.6937 28.7165 7.74812 28.781 7.80333C28.8454 7.85854 28.9092 7.91453 28.9723 7.9713C29.0354 8.02808 29.0977 8.08561 29.1594 8.14391C29.2211 8.2022 29.282 8.26125 29.3422 8.32104C29.6656 8.64579 29.97 8.98746 30.2554 9.34605C31.2107 10.707 31.8417 11.9122 32.1923 13.5535C32.4889 14.9426 32.4228 16.3798 32.4229 17.7915L32.4226 26.2569C32.4226 27.4891 32.465 28.73 32.2509 29.9484C32.1506 30.5186 32.0077 31.1063 31.7868 31.6418C31.5539 31.4173 31.1755 31.251 30.8657 31.1692C30.2759 31.0135 29.6282 30.9821 29.0222 30.9103C27.6733 30.7502 26.3063 30.6261 24.9656 30.4126C24.978 29.8106 24.977 29.2015 24.963 28.5996C23.9791 28.9571 23.0513 29.1351 22.0003 29.1384C22.0046 28.999 22.0023 28.8613 21.997 28.7219C21.9942 28.1221 21.995 27.5222 21.9996 26.9223C21.425 26.8604 20.9352 26.7416 20.4718 26.3739C19.8503 25.8807 19.6298 25.2345 19.5453 24.4719L20.5786 24.4686C20.6041 24.8511 20.7351 25.2017 21.0098 25.4763C21.0425 25.5085 21.0766 25.539 21.1122 25.568C21.1478 25.5968 21.1847 25.6239 21.223 25.6493C21.2612 25.6746 21.3005 25.698 21.341 25.7195C21.3815 25.7409 21.423 25.7604 21.4654 25.7779C21.5078 25.7954 21.551 25.8108 21.5949 25.824C21.6388 25.8373 21.6832 25.8484 21.7282 25.8574C21.7732 25.8663 21.8184 25.8731 21.864 25.8777C21.9097 25.8823 21.9555 25.8846 22.0013 25.8847C21.9854 24.9702 21.9966 24.0533 21.9965 23.1385L21.9977 16.1884C21.9985 15.8027 22.0118 15.4137 21.9931 15.0285C22.0225 14.9646 22.0376 14.9085 22.0503 14.8394C22.0062 14.6897 22.002 14.513 21.9957 14.3571C22.019 14.2293 21.9951 14.0746 21.9934 13.9438C21.99 13.6908 21.9925 13.4374 21.9926 13.1844L21.993 9.86331C21.993 9.67802 21.9591 9.14203 22.0048 9.00771L22.18 8.99843L21.997 8.97866C21.9869 8.15736 21.9922 7.33456 21.9966 6.5132L22.0174 6.50765C21.9525 6.33866 21.9973 5.52979 21.9993 5.29921Z" fill="#9C6144"/>
<path d="M31.1945 19.7455C31.7108 20.1383 32.0502 20.6565 32.1361 21.3067C32.1412 21.3441 32.1455 21.3817 32.1488 21.4194C32.1521 21.457 32.1544 21.4948 32.1558 21.5326C32.1573 21.5704 32.1578 21.6082 32.1573 21.646C32.1568 21.6838 32.1554 21.7216 32.1531 21.7594C32.1507 21.7971 32.1475 21.8348 32.1433 21.8724C32.139 21.91 32.1339 21.9474 32.1279 21.9847C32.1218 22.0221 32.1148 22.0592 32.1068 22.0962C32.0989 22.1332 32.0901 22.17 32.0804 22.2065C32.0706 22.2431 32.06 22.2793 32.0484 22.3153C32.0369 22.3513 32.0245 22.3871 32.0111 22.4225C31.9978 22.4579 31.9836 22.4929 31.9686 22.5276C31.9535 22.5623 31.9376 22.5966 31.9208 22.6304C31.904 22.6644 31.8864 22.6978 31.8679 22.7309C31.8496 22.7639 31.8303 22.7964 31.8103 22.8285C31.7902 22.8605 31.7694 22.8921 31.7477 22.9231C31.7261 22.9542 31.7037 22.9847 31.6806 23.0146C31.6575 23.0447 31.6337 23.0742 31.6091 23.1032C31.5845 23.1321 31.5592 23.1604 31.5332 23.1881C31.5072 23.2158 31.4805 23.2428 31.4532 23.2691C31.4259 23.2955 31.3979 23.3211 31.3693 23.346C31.3407 23.371 31.3114 23.3952 31.2816 23.4187C31.2518 23.4421 31.2214 23.4649 31.1904 23.4869C31.1595 23.5088 31.128 23.53 31.096 23.5504C31.0639 23.5708 31.0314 23.5904 30.9984 23.6091C30.9654 23.6279 30.932 23.6458 30.8981 23.663C30.8642 23.68 30.8299 23.6963 30.7952 23.7117C30.7605 23.7271 30.7254 23.7416 30.69 23.7552C30.6545 23.7688 30.6188 23.7816 30.5828 23.7934C30.5467 23.8053 30.5103 23.8162 30.4737 23.8263C30.4371 23.8363 30.4002 23.8454 30.3632 23.8536C30.3261 23.8618 30.2888 23.8691 30.2514 23.8754C30.214 23.8817 30.1764 23.8871 30.1387 23.8916C29.9717 23.9112 29.7944 23.9221 29.6301 23.8821C29.7053 23.7568 29.823 23.446 29.8369 23.2983C29.839 23.4356 29.839 23.5733 29.848 23.7104C30.2455 23.6788 30.6023 23.5504 30.8662 23.238C30.9007 23.1974 30.9327 23.1549 30.9621 23.1104C30.9915 23.0659 31.0181 23.0198 31.0419 22.9721C31.0657 22.9244 31.0865 22.8754 31.1044 22.8252C31.1222 22.7749 31.1369 22.7238 31.1486 22.6718C31.2222 22.3395 31.1927 21.9709 31.192 21.6315C31.1907 21.0044 31.1719 20.372 31.1945 19.7455Z" fill="#FBA58F"/>
<path d="M22.0174 6.50765C24.5787 6.52954 27.0155 7.46274 28.8274 9.30385C28.9154 9.39185 29.0015 9.48171 29.0856 9.57344C29.1698 9.6651 29.2519 9.75855 29.3321 9.85377C29.4123 9.94899 29.4903 10.0459 29.5664 10.1445C29.6424 10.243 29.7163 10.3432 29.788 10.4448C29.8597 10.5466 29.9293 10.6498 29.9966 10.7545C30.0639 10.8592 30.1289 10.9653 30.1917 11.0728C30.2545 11.1803 30.3149 11.289 30.3731 11.3991C30.4312 11.5092 30.4869 11.6204 30.5402 11.7329C30.5936 11.8453 30.6445 11.9589 30.693 12.0734C30.7415 12.1881 30.7876 12.3037 30.8311 12.4203C30.8746 12.5369 30.9157 12.6544 30.9542 12.7727C30.9927 12.8911 31.0287 13.0102 31.0621 13.1301C31.0956 13.25 31.1264 13.3706 31.1547 13.4918C31.1829 13.613 31.2086 13.7348 31.2317 13.8571C31.2547 13.9794 31.2751 14.1021 31.2929 14.2253C31.3108 14.3486 31.3259 14.4721 31.3384 14.5959C31.4107 15.3636 31.3732 16.1709 31.3658 16.9433C31.3643 17.1096 31.3573 17.2767 31.3348 17.4417L31.3144 17.4426C31.2002 15.1172 30.1656 13.006 28.4447 11.4429C28.3384 11.3469 28.23 11.2533 28.1194 11.1622C28.0089 11.0711 27.8964 10.9825 27.7819 10.8965C27.6673 10.8105 27.5508 10.7272 27.4325 10.6465C27.3142 10.5657 27.1941 10.4877 27.0722 10.4124C26.9503 10.3372 26.8269 10.2647 26.7017 10.195C26.5765 10.1254 26.4499 10.0586 26.3217 9.99462C26.1935 9.93068 26.064 9.86966 25.933 9.81157C25.802 9.75353 25.6698 9.69848 25.5364 9.6464C25.403 9.59432 25.2684 9.54528 25.1328 9.49927C24.9971 9.45333 24.8605 9.41047 24.7228 9.37071C24.5852 9.33095 24.4468 9.29431 24.3075 9.2608C24.1682 9.22728 24.0283 9.19695 23.8876 9.16979C23.747 9.14269 23.6058 9.11874 23.464 9.09795C23.3223 9.07721 23.1802 9.05967 23.0377 9.04535C22.8952 9.03109 22.7524 9.02003 22.6094 9.01218C22.4663 9.00433 22.3232 8.99975 22.18 8.99843L21.997 8.97866C21.9869 8.15736 21.9922 7.33456 21.9966 6.5132L22.0174 6.50765Z" fill="#FE3F83"/>
<path d="M22.0503 14.8394C22.3444 15.8104 22.8137 16.5393 23.7328 17.0265C24.6409 17.508 25.4258 17.344 26.3758 17.462C26.4224 17.4682 26.4689 17.4752 26.5153 17.483C26.5617 17.4908 26.608 17.4995 26.6541 17.5089C26.7002 17.5184 26.7462 17.5286 26.7919 17.5398C26.8376 17.5509 26.8831 17.5628 26.9284 17.5754C26.9737 17.5881 27.0188 17.6017 27.0637 17.616C27.1085 17.6303 27.153 17.6454 27.1973 17.6613C27.2417 17.6772 27.2857 17.6939 27.3293 17.7113C27.373 17.7288 27.4164 17.747 27.4595 17.766C27.5025 17.785 27.5453 17.8047 27.5877 17.8252C27.63 17.8458 27.672 17.867 27.7136 17.889C27.7551 17.911 27.7963 17.9338 27.8371 17.9572C27.8779 17.9807 27.9183 18.0049 27.9582 18.0298C27.9981 18.0547 28.0377 18.0803 28.0767 18.1066C28.1157 18.1329 28.1543 18.1599 28.1923 18.1876C28.2304 18.2152 28.268 18.2436 28.3051 18.2725C28.3421 18.3015 28.3787 18.3312 28.4146 18.3615C28.4507 18.3918 28.4861 18.4227 28.521 18.4543C28.556 18.4859 28.5903 18.518 28.6241 18.5508C28.6578 18.5836 28.691 18.6169 28.7236 18.6508C28.7562 18.6848 28.7881 18.7194 28.8195 18.7545C28.8509 18.7895 28.8816 18.8252 28.9117 18.8614C28.9418 18.8975 28.9712 18.9342 29 18.9715C29.0288 19.0087 29.0569 19.0464 29.0844 19.0847C29.1119 19.1229 29.1386 19.1616 29.1647 19.2008C29.1908 19.2399 29.2161 19.2796 29.2408 19.3196C29.2655 19.3597 29.2895 19.4002 29.3127 19.4411C29.3359 19.482 29.3584 19.5234 29.3801 19.5651C29.4019 19.6068 29.4229 19.6489 29.4432 19.6914C29.4635 19.7339 29.483 19.7767 29.5017 19.8199C29.5205 19.863 29.5385 19.9065 29.5557 19.9503C29.5729 19.9941 29.5893 20.0382 29.605 20.0826C29.6207 20.127 29.6355 20.1716 29.6496 20.2165C29.8611 20.8967 29.8452 21.5916 29.8443 22.2947C29.8439 22.6288 29.8491 22.9643 29.8369 23.2983C29.823 23.446 29.7053 23.7568 29.6301 23.8821C29.6242 23.8897 29.6182 23.8971 29.6124 23.9047C29.5145 24.0351 29.4506 24.2699 29.3795 24.4232C29.2509 24.7055 29.1067 24.9797 28.9472 25.2459C28.2277 26.454 27.1442 27.46 25.9181 28.1396C25.6095 28.3106 25.2838 28.453 24.963 28.5996C23.9791 28.9571 23.0513 29.1351 22.0003 29.1384C22.0046 28.999 22.0023 28.8613 21.997 28.7219C21.9942 28.1221 21.995 27.5222 21.9996 26.9223C21.425 26.8604 20.9352 26.7416 20.4718 26.3739C19.8503 25.8807 19.6298 25.2345 19.5453 24.4719L20.5786 24.4686C20.6041 24.8511 20.7351 25.2017 21.0098 25.4763C21.0425 25.5085 21.0766 25.539 21.1122 25.568C21.1478 25.5968 21.1847 25.6239 21.223 25.6493C21.2612 25.6746 21.3005 25.698 21.341 25.7195C21.3815 25.7409 21.423 25.7604 21.4654 25.7779C21.5078 25.7954 21.551 25.8108 21.5949 25.824C21.6388 25.8373 21.6832 25.8484 21.7282 25.8574C21.7732 25.8663 21.8184 25.8731 21.864 25.8777C21.9097 25.8823 21.9555 25.8846 22.0013 25.8847C21.9854 24.9702 21.9966 24.0533 21.9965 23.1385L21.9977 16.1884C21.9985 15.8027 22.0118 15.4137 21.9931 15.0285C22.0225 14.9646 22.0376 14.9085 22.0503 14.8394Z" fill="#FEC3B1"/>
<path d="M25.7273 19.708C25.8599 19.7184 25.9852 19.7464 26.1013 19.8141C26.2646 19.9093 26.3632 20.0784 26.4036 20.2593C26.4619 20.5206 26.4569 21.2656 26.4112 21.5267C26.3926 21.6326 26.3547 21.7371 26.2932 21.8258C26.1589 22.0196 25.9558 22.0865 25.734 22.1222C25.5858 22.1006 25.4409 22.0615 25.319 21.971C25.1622 21.8546 25.0862 21.6823 25.0553 21.494C24.9984 21.1473 24.987 20.2422 25.2024 19.9662C25.3349 19.7965 25.5215 19.7323 25.7273 19.708Z" fill="#414041"/>
<path d="M23.4056 24.4527C23.7603 24.4535 24.1167 24.4469 24.471 24.458C24.3715 25.2593 24.173 25.894 23.5062 26.4087C23.0596 26.7535 22.5583 26.9032 21.9996 26.9223C21.425 26.8604 20.9352 26.7416 20.4718 26.3739C19.8503 25.8807 19.6298 25.2345 19.5453 24.4719L20.5786 24.4686C20.6041 24.8511 20.7351 25.2017 21.0098 25.4763C21.0425 25.5085 21.0766 25.539 21.1122 25.568C21.1478 25.5968 21.1847 25.6239 21.223 25.6493C21.2612 25.6746 21.3005 25.698 21.341 25.7195C21.3815 25.7409 21.423 25.7604 21.4654 25.7779C21.5078 25.7954 21.551 25.8108 21.5949 25.824C21.6388 25.8373 21.6832 25.8484 21.7282 25.8574C21.7732 25.8663 21.8184 25.8731 21.864 25.8777C21.9097 25.8823 21.9555 25.8846 22.0013 25.8847C22.4264 25.8354 22.8225 25.6866 23.096 25.3431C23.3011 25.0854 23.381 24.7754 23.4056 24.4527Z" fill="#F36437"/>
</svg>
